<svg width="29" height="23" viewBox="0 0 29 23" fill="none" xmlns="http://www.w3.org/2000/svg">
<path d="M24.125 0.5H4.875C3.78098 0.5 2.73177 0.934597 1.95818 1.70818C1.1846 2.48177 0.75 3.53098 0.75 4.625V18.375C0.75 19.469 1.1846 20.5182 1.95818 21.2918C2.73177 22.0654 3.78098 22.5 4.875 22.5H24.125C25.219 22.5 26.2682 22.0654 27.0418 21.2918C27.8154 20.5182 28.25 19.469 28.25 18.375V4.625C28.25 3.53098 27.8154 2.48177 27.0418 1.70818C26.2682 0.934597 25.219 0.5 24.125 0.5ZM4.875 3.25H24.125C24.4897 3.25 24.8394 3.39487 25.0973 3.65273C25.3551 3.91059 25.5 4.26033 25.5 4.625L14.5 11.335L3.5 4.625C3.5 4.26033 3.64487 3.91059 3.90273 3.65273C4.16059 3.39487 4.51033 3.25 4.875 3.25ZM25.5 18.375C25.5 18.7397 25.3551 19.0894 25.0973 19.3473C24.8394 19.6051 24.4897 19.75 24.125 19.75H4.875C4.51033 19.75 4.16059 19.6051 3.90273 19.3473C3.64487 19.0894 3.5 18.7397 3.5 18.375V7.76L13.785 14.0438C13.994 14.1644 14.2311 14.228 14.4725 14.228C14.7139 14.228 14.951 14.1644 15.16 14.0438L25.5 7.76V18.375Z" fill="white"/>
</svg>
