<svg width="29" height="23" viewBox="0 0 29 23" fill="none" xmlns="http://www.w3.org/2000/svg">
<path d="M28.25 2.97504C27.2165 3.42342 26.1235 3.71983 25.005 3.85504C26.185 3.15011 27.0693 2.04112 27.4938 0.733794C26.3849 1.39388 25.171 1.85895 23.905 2.10879C23.0588 1.19108 21.9318 0.580202 20.701 0.371965C19.4701 0.163728 18.205 0.369912 17.104 0.95818C16.0029 1.54645 15.1283 2.48352 14.6172 3.62244C14.1061 4.76136 13.9875 6.0377 14.28 7.25129C12.038 7.13789 9.84486 6.5541 7.84315 5.53785C5.84144 4.5216 4.07591 3.09562 2.66125 1.35254C2.16506 2.21903 1.90434 3.2003 1.905 4.19879C1.90324 5.12607 2.1308 6.03939 2.56741 6.85745C3.00403 7.6755 3.63615 8.3729 4.4075 8.88754C3.51097 8.86315 2.63359 8.62258 1.85 8.18629V8.25504C1.85672 9.55427 2.31199 10.8113 3.13881 11.8135C3.96562 12.8157 5.11323 13.5016 6.3875 13.755C5.89698 13.9043 5.3877 13.983 4.875 13.9888C4.5201 13.9846 4.16608 13.9525 3.81625 13.8925C4.17913 15.0102 4.88136 15.9869 5.82523 16.6868C6.7691 17.3867 7.90767 17.7749 9.0825 17.7975C7.09865 19.3585 4.64934 20.2105 2.125 20.2175C1.66539 20.2191 1.20614 20.1915 0.75 20.135C3.32734 21.7991 6.33087 22.6825 9.39875 22.6788C11.5158 22.7008 13.6161 22.3007 15.5768 21.5019C17.5375 20.7031 19.3194 19.5216 20.8184 18.0265C22.3174 16.5313 23.5034 14.7525 24.3073 12.7938C25.1111 10.8351 25.5166 8.73592 25.5 6.61879C25.5 6.38504 25.5 6.13754 25.5 5.89004C26.579 5.08541 27.5095 4.099 28.25 2.97504Z" fill="white"/>
</svg>
