<svg width="29" height="29" viewBox="0 0 29 29" fill="none" xmlns="http://www.w3.org/2000/svg">
<path d="M26.7375 0.75H2.2625C1.86136 0.75 1.47665 0.909352 1.193 1.193C0.909352 1.47665 0.75 1.86136 0.75 2.2625V26.7375C0.75 26.9361 0.789122 27.1328 0.865132 27.3163C0.941143 27.4998 1.05255 27.6666 1.193 27.807C1.33345 27.9474 1.50019 28.0589 1.68369 28.1349C1.8672 28.2109 2.06388 28.25 2.2625 28.25H15.435V17.5938H11.86V13.4688H15.435V10.375C15.3609 9.64867 15.4467 8.91492 15.6862 8.22524C15.9258 7.53555 16.3133 6.90662 16.8216 6.38257C17.33 5.85851 17.9468 5.45201 18.6289 5.19158C19.311 4.93115 20.0417 4.8231 20.77 4.875C21.8402 4.86841 22.9099 4.92351 23.9737 5.04V8.7525H21.7875C20.055 8.7525 19.725 9.5775 19.725 10.7738V13.4275H23.85L23.3137 17.5525H19.725V28.25H26.7375C26.9361 28.25 27.1328 28.2109 27.3163 28.1349C27.4998 28.0589 27.6666 27.9474 27.807 27.807C27.9474 27.6666 28.0589 27.4998 28.1349 27.3163C28.2109 27.1328 28.25 26.9361 28.25 26.7375V2.2625C28.25 2.06388 28.2109 1.8672 28.1349 1.68369C28.0589 1.50019 27.9474 1.33345 27.807 1.193C27.6666 1.05255 27.4998 0.941143 27.3163 0.865132C27.1328 0.789122 26.9361 0.75 26.7375 0.75Z" fill="white"/>
</svg>
